<svg width="454" height="76" viewBox="0 0 454 76" xmlns="http://www.w3.org/2000/svg"><title>logo for web</title><path d="M70 70c7.774-7.804 7.774-20.426 0-28.23l-35-35c-7.804-7.774-20.426-7.774-28.23 0-7.774 7.804-7.774 20.426 0 28.23l35 35c7.804 7.774 20.426 7.774 28.23 0zM175.36 6.83c-7.804-7.774-20.426-7.774-28.23 0l-21.29 21.29-21.28-21.29c-7.804-7.774-20.426-7.774-28.23 0-7.768 7.803-7.768 20.417 0 28.22l35 35c8.134 7.747 20.916 7.747 29.05 0l35-35c7.762-7.809 7.753-20.422-.02-28.22zm25.53 7.31h14.21L222.31 42h.21l6.65-27.86h14l6.51 27.79h.21l7.21-27.79h14.21l-15.47 49.7h-12.11l-7.35-30.24h-.14l-7.77 30.24h-12.11l-15.47-49.7zm69.91 35.49V29.54h12.46v17.08c0 4.9 1.33 6.93 4.48 6.93 2.66 0 4.69-2.1 4.69-6.79V29.54H305v34.3h-12.57V60.2l-.14-.07a11.7 11.7 0 0 1-9.38 4.41c-7 0-12.11-3.78-12.11-14.91zm39.51-20.09h12.53v3.64h.16a12.39 12.39 0 0 1 9.66-4.34c6.93 0 12.18 3.15 12.18 14.28v20.72h-12.55V46.13c0-4.9-1.4-6.23-4.48-6.23-3.08 0-5 2-5 6.72v17.22h-12.5v-34.3zm63.57-17.22V32.9l-.14.07a12 12 0 0 0-9.17-4.13c-8.61 0-15.2 7.28-15.2 17.85s6.52 17.85 16 17.85c3.92 0 6.93-1.26 9-3.85h.14v3.15h11.9V12.32h-12.53zm-5.81 41.3c-3.5 0-6.09-2.73-6.09-6.93 0-4.2 2.59-6.86 6.09-6.86s6.3 2.8 6.3 6.86c0 4.06-2.66 6.93-6.3 6.93zm58-7.21c0-10.29-7.35-17.57-17.22-17.57-10.36 0-17.78 7.49-17.78 17.85 0 10.57 7.7 17.85 18 17.85 7.91 0 13-2.52 15.89-6l-6.72-7.42a10.43 10.43 0 0 1-7.7 3.57c-3.78 0-6.65-1.61-7.21-4.9h22.47a27.19 27.19 0 0 0 .28-3.38h-.01zM403.33 43a5.31 5.31 0 0 1 5.46-4.62c2.73 0 4.62 1.68 5.18 4.62h-10.64zm27.52-13.44h12.53v4.62h.14a11.57 11.57 0 0 1 9.48-5.34h.07v13.37c-1.05-.07-2.1-.07-2.66-.07-4.83 0-7.07 2.73-7.07 6.72v15h-12.49v-34.3z" fill="#334146" fill-rule="nonzero"/></svg>